<?xml version="1.0"?>
<svg fill="#000000" xmlns="http://www.w3.org/2000/svg" viewBox="0 0 50 50" width="20px" height="20px">
    <title id="keybase">keybase</title>
    <path d="M 24.433594 3.0019531 C 24.214219 3.0163281 23.998672 3.1032656 23.826172 3.2597656 C 23.70669 3.369165 22.227427 4.7384267 20.789062 6.9453125 C 20.493313 6.3897739 19.914285 6 19.25 6 L 14.75 6 C 13.794937 6 13 6.7949372 13 7.75 L 13 12.25 C 13 13.205063 13.794937 14 14.75 14 L 18.095703 14 C 18.038214 14.490889 18 14.988881 18 15.5 C 18 19.636 21.364 23 25.5 23 C 29.636 23 33 19.636 33 15.5 C 33 11.364 29.636 8 25.5 8 C 25.122 8 25.041812 7.8810781 25.007812 7.8300781 C 24.614813 7.2520781 24.999734 5.4491406 25.427734 4.3691406 C 25.599734 3.9371406 25.451359 3.4427344 25.068359 3.1777344 C 24.876359 3.0457344 24.652969 2.9875781 24.433594 3.0019531 z M 15 8 L 19 8 L 19 10.417969 C 18.803248 10.926943 18.627384 11.452559 18.480469 12 L 15 12 L 15 8 z M 16.646484 18.917969 C 9.2184844 22.402969 5 30.302 5 41 L 5 44 L 6.7246094 41.701172 C 7.0915267 43.013922 7.5755083 44.27612 8.1894531 45.460938 A 1.0002334 1.0002334 0 0 0 9.9648438 44.539062 C 9.1849975 43.034082 8.6252974 41.406022 8.3066406 39.693359 C 9.8157619 37.873526 11.472447 36.122537 13.066406 34.650391 C 12.538406 36.060391 12.183812 37.471953 12.007812 38.876953 L 11.693359 41.390625 L 13.640625 39.767578 C 13.696625 39.720578 19.437 35 26 35 C 29.219 35 30.97925 35.2985 32.53125 35.5625 C 33.86125 35.7875 35.118 36 37 36 C 40.1 36 41.797109 34.415625 42.537109 32.515625 C 42.734109 33.359625 42.872359 34.222563 42.943359 35.101562 C 42.979359 35.564563 43 36.03 43 36.5 C 43 39.318 42.33725 42.021062 41.03125 44.539062 C 40.77725 45.029063 40.968984 45.634672 41.458984 45.888672 C 41.605984 45.964672 41.764922 46 41.919922 46 C 42.280922 46 42.630594 45.804937 42.808594 45.460938 C 44.263594 42.656937 45 39.642 45 36.5 C 45 35.977 44.9785 35.456406 44.9375 34.941406 C 44.4555 28.783406 41.127547 23.350469 36.060547 20.105469 C 36.019547 20.079469 35.9785 20.051391 35.9375 20.025391 C 35.6015 19.814391 35.25625 19.615828 34.90625 19.423828 C 34.78325 19.355828 34.662109 19.285703 34.537109 19.220703 C 34.455109 19.177703 34.370109 19.140609 34.287109 19.099609 C 33.657109 20.630609 32.638469 21.961703 31.355469 22.970703 L 34.707031 26.322266 C 35.098031 26.713266 35.098031 27.345328 34.707031 27.736328 C 34.512031 27.931328 34.256 28.029297 34 28.029297 C 33.744 28.029297 33.487969 27.931328 33.292969 27.736328 L 32.455078 26.900391 L 30.648438 28.707031 C 30.453437 28.901031 30.197406 29 29.941406 29 C 29.685406 29 29.429375 28.902031 29.234375 28.707031 C 28.843375 28.316031 28.843375 27.683969 29.234375 27.292969 L 31.042969 25.484375 L 30 24.443359 L 28.707031 25.736328 C 28.512031 25.931328 28.256 26.029297 28 26.029297 C 27.744 26.029297 27.487969 25.931328 27.292969 25.736328 C 27.056969 25.500328 26.981297 25.178047 27.029297 24.873047 C 26.531297 24.954047 26.021 25 25.5 25 C 21.467 25 18.022484 22.470969 16.646484 18.917969 z M 20.5 40 A 1.5 1.5 0 0 0 19 41.5 A 1.5 1.5 0 0 0 20.5 43 A 1.5 1.5 0 0 0 22 41.5 A 1.5 1.5 0 0 0 20.5 40 z M 31.5 40 A 1.5 1.5 0 0 0 30 41.5 A 1.5 1.5 0 0 0 31.5 43 A 1.5 1.5 0 0 0 33 41.5 A 1.5 1.5 0 0 0 31.5 40 z"/>
</svg>
